<mxfile host="Electron" modified="2023-11-26T04:20:12.326Z" agent="Mozilla/5.0 (Windows NT 10.0; Win64; x64) AppleWebKit/537.36 (KHTML, like Gecko) draw.io/22.1.2 Chrome/114.0.5735.289 Electron/25.9.4 Safari/537.36" etag="dKC8mfpZVXoyP_nsCKpp" version="22.1.2" type="device">
  <diagram name="Страница — 1" id="g8eG_JDI9fX0p8eJ-ZpB">
    <mxGraphModel dx="993" dy="985" grid="1" gridSize="10" guides="1" tooltips="1" connect="1" arrows="1" fold="1" page="1" pageScale="1" pageWidth="827" pageHeight="1169" math="0" shadow="0">
      <root>
        <mxCell id="0" />
        <mxCell id="1" parent="0" />
        <mxCell id="wFziyDtqeIjQP0cTcD0j-1" value="comments.ruden.pro" style="swimlane;whiteSpace=wrap;html=1;" parent="1" vertex="1">
          <mxGeometry x="60" y="100" width="1630" height="950" as="geometry" />
        </mxCell>
        <mxCell id="wFziyDtqeIjQP0cTcD0j-2" value="database" style="swimlane;whiteSpace=wrap;html=1;" parent="wFziyDtqeIjQP0cTcD0j-1" vertex="1">
          <mxGeometry x="10" y="40" width="680" height="450" as="geometry" />
        </mxCell>
        <mxCell id="wFziyDtqeIjQP0cTcD0j-14" value="threads" style="swimlane;fontStyle=0;childLayout=stackLayout;horizontal=1;startSize=30;horizontalStack=0;resizeParent=1;resizeParentMax=0;resizeLast=0;collapsible=1;marginBottom=0;whiteSpace=wrap;html=1;fontSize=16;rounded=1;" parent="wFziyDtqeIjQP0cTcD0j-2" vertex="1">
          <mxGeometry x="20" y="280" width="280" height="150" as="geometry">
            <mxRectangle x="236" y="57" width="83" height="31" as="alternateBounds" />
          </mxGeometry>
        </mxCell>
        <mxCell id="wFziyDtqeIjQP0cTcD0j-15" value="id" style="text;strokeColor=none;fillColor=none;align=left;verticalAlign=middle;spacingLeft=4;spacingRight=4;overflow=hidden;points=[[0,0.5],[1,0.5]];portConstraint=eastwest;rotatable=0;whiteSpace=wrap;html=1;fontSize=16;" parent="wFziyDtqeIjQP0cTcD0j-14" vertex="1">
          <mxGeometry y="30" width="280" height="30" as="geometry" />
        </mxCell>
        <mxCell id="wFziyDtqeIjQP0cTcD0j-26" value="app_id(optional)" style="text;strokeColor=none;fillColor=none;align=left;verticalAlign=middle;spacingLeft=4;spacingRight=4;overflow=hidden;points=[[0,0.5],[1,0.5]];portConstraint=eastwest;rotatable=0;whiteSpace=wrap;html=1;fontSize=16;" parent="wFziyDtqeIjQP0cTcD0j-14" vertex="1">
          <mxGeometry y="60" width="280" height="30" as="geometry" />
        </mxCell>
        <mxCell id="wFziyDtqeIjQP0cTcD0j-16" value="thread_token" style="text;strokeColor=none;fillColor=none;align=left;verticalAlign=middle;spacingLeft=4;spacingRight=4;overflow=hidden;points=[[0,0.5],[1,0.5]];portConstraint=eastwest;rotatable=0;whiteSpace=wrap;html=1;fontSize=16;" parent="wFziyDtqeIjQP0cTcD0j-14" vertex="1">
          <mxGeometry y="90" width="280" height="30" as="geometry" />
        </mxCell>
        <mxCell id="wFziyDtqeIjQP0cTcD0j-17" value="create_date" style="text;strokeColor=none;fillColor=none;align=left;verticalAlign=middle;spacingLeft=4;spacingRight=4;overflow=hidden;points=[[0,0.5],[1,0.5]];portConstraint=eastwest;rotatable=0;whiteSpace=wrap;html=1;fontSize=16;" parent="wFziyDtqeIjQP0cTcD0j-14" vertex="1">
          <mxGeometry y="120" width="280" height="30" as="geometry" />
        </mxCell>
        <mxCell id="wFziyDtqeIjQP0cTcD0j-9" value="ratings" style="swimlane;fontStyle=0;childLayout=stackLayout;horizontal=1;startSize=30;horizontalStack=0;resizeParent=1;resizeParentMax=0;resizeLast=0;collapsible=1;marginBottom=0;whiteSpace=wrap;html=1;fontSize=16;rounded=1;" parent="wFziyDtqeIjQP0cTcD0j-2" vertex="1">
          <mxGeometry x="380" y="50" width="280" height="150" as="geometry">
            <mxRectangle x="236" y="57" width="83" height="31" as="alternateBounds" />
          </mxGeometry>
        </mxCell>
        <mxCell id="wFziyDtqeIjQP0cTcD0j-10" value="id" style="text;strokeColor=none;fillColor=none;align=left;verticalAlign=middle;spacingLeft=4;spacingRight=4;overflow=hidden;points=[[0,0.5],[1,0.5]];portConstraint=eastwest;rotatable=0;whiteSpace=wrap;html=1;fontSize=16;" parent="wFziyDtqeIjQP0cTcD0j-9" vertex="1">
          <mxGeometry y="30" width="280" height="30" as="geometry" />
        </mxCell>
        <mxCell id="wFziyDtqeIjQP0cTcD0j-11" value="comment_id" style="text;strokeColor=none;fillColor=none;align=left;verticalAlign=middle;spacingLeft=4;spacingRight=4;overflow=hidden;points=[[0,0.5],[1,0.5]];portConstraint=eastwest;rotatable=0;whiteSpace=wrap;html=1;fontSize=16;" parent="wFziyDtqeIjQP0cTcD0j-9" vertex="1">
          <mxGeometry y="60" width="280" height="30" as="geometry" />
        </mxCell>
        <mxCell id="wFziyDtqeIjQP0cTcD0j-12" value="user_id" style="text;strokeColor=none;fillColor=none;align=left;verticalAlign=middle;spacingLeft=4;spacingRight=4;overflow=hidden;points=[[0,0.5],[1,0.5]];portConstraint=eastwest;rotatable=0;whiteSpace=wrap;html=1;fontSize=16;" parent="wFziyDtqeIjQP0cTcD0j-9" vertex="1">
          <mxGeometry y="90" width="280" height="30" as="geometry" />
        </mxCell>
        <mxCell id="wFziyDtqeIjQP0cTcD0j-13" value="vote" style="text;strokeColor=none;fillColor=none;align=left;verticalAlign=middle;spacingLeft=4;spacingRight=4;overflow=hidden;points=[[0,0.5],[1,0.5]];portConstraint=eastwest;rotatable=0;whiteSpace=wrap;html=1;fontSize=16;" parent="wFziyDtqeIjQP0cTcD0j-9" vertex="1">
          <mxGeometry y="120" width="280" height="30" as="geometry" />
        </mxCell>
        <mxCell id="wFziyDtqeIjQP0cTcD0j-18" value="&lt;div style=&quot;font-size: 18px;&quot;&gt;&lt;font style=&quot;font-size: 18px;&quot;&gt;API&lt;/font&gt;&lt;/div&gt;" style="swimlane;whiteSpace=wrap;html=1;" parent="wFziyDtqeIjQP0cTcD0j-1" vertex="1">
          <mxGeometry x="720" y="40" width="686" height="444" as="geometry" />
        </mxCell>
        <mxCell id="wFziyDtqeIjQP0cTcD0j-19" value="&lt;div style=&quot;font-size: 16px;&quot;&gt;GET thread key&lt;/div&gt;" style="swimlane;horizontal=0;whiteSpace=wrap;html=1;fontSize=16;" parent="wFziyDtqeIjQP0cTcD0j-18" vertex="1">
          <mxGeometry x="19" y="38" width="249" height="218" as="geometry" />
        </mxCell>
        <mxCell id="wFziyDtqeIjQP0cTcD0j-20" value="random generate unique token" style="rounded=0;whiteSpace=wrap;html=1;" parent="wFziyDtqeIjQP0cTcD0j-19" vertex="1">
          <mxGeometry x="35" y="9" width="200" height="60" as="geometry" />
        </mxCell>
        <mxCell id="wFziyDtqeIjQP0cTcD0j-21" value="save thread" style="rounded=0;whiteSpace=wrap;html=1;" parent="wFziyDtqeIjQP0cTcD0j-19" vertex="1">
          <mxGeometry x="36" y="79" width="199" height="60" as="geometry" />
        </mxCell>
        <mxCell id="wFziyDtqeIjQP0cTcD0j-22" value="return token" style="rounded=0;whiteSpace=wrap;html=1;" parent="wFziyDtqeIjQP0cTcD0j-19" vertex="1">
          <mxGeometry x="36" y="149" width="199" height="60" as="geometry" />
        </mxCell>
        <mxCell id="wFziyDtqeIjQP0cTcD0j-23" value="GET thread" style="swimlane;horizontal=0;whiteSpace=wrap;html=1;fontSize=16;" parent="wFziyDtqeIjQP0cTcD0j-18" vertex="1">
          <mxGeometry x="19" y="266" width="249" height="153" as="geometry" />
        </mxCell>
        <mxCell id="wFziyDtqeIjQP0cTcD0j-24" value="load comments for thread" style="rounded=0;whiteSpace=wrap;html=1;" parent="wFziyDtqeIjQP0cTcD0j-23" vertex="1">
          <mxGeometry x="35" y="9" width="200" height="60" as="geometry" />
        </mxCell>
        <mxCell id="wFziyDtqeIjQP0cTcD0j-25" value="return comments" style="rounded=0;whiteSpace=wrap;html=1;" parent="wFziyDtqeIjQP0cTcD0j-23" vertex="1">
          <mxGeometry x="36" y="79" width="199" height="60" as="geometry" />
        </mxCell>
        <mxCell id="odb9L4aliXWfhoRkiFgD-26" value="&lt;div style=&quot;font-size: 16px;&quot;&gt;POST comment&lt;/div&gt;" style="swimlane;horizontal=0;whiteSpace=wrap;html=1;fontSize=16;" vertex="1" parent="wFziyDtqeIjQP0cTcD0j-18">
          <mxGeometry x="290" y="38" width="249" height="152" as="geometry" />
        </mxCell>
        <mxCell id="odb9L4aliXWfhoRkiFgD-28" value="save comment" style="rounded=0;whiteSpace=wrap;html=1;" vertex="1" parent="odb9L4aliXWfhoRkiFgD-26">
          <mxGeometry x="36" y="12" width="199" height="60" as="geometry" />
        </mxCell>
        <mxCell id="odb9L4aliXWfhoRkiFgD-29" value="return status" style="rounded=0;whiteSpace=wrap;html=1;" vertex="1" parent="odb9L4aliXWfhoRkiFgD-26">
          <mxGeometry x="36" y="79" width="199" height="60" as="geometry" />
        </mxCell>
        <mxCell id="odb9L4aliXWfhoRkiFgD-30" value="&lt;div style=&quot;font-size: 16px;&quot;&gt;POST vote&lt;/div&gt;" style="swimlane;horizontal=0;whiteSpace=wrap;html=1;fontSize=16;" vertex="1" parent="wFziyDtqeIjQP0cTcD0j-18">
          <mxGeometry x="290" y="200" width="249" height="152" as="geometry" />
        </mxCell>
        <mxCell id="odb9L4aliXWfhoRkiFgD-31" value="save comment vote" style="rounded=0;whiteSpace=wrap;html=1;" vertex="1" parent="odb9L4aliXWfhoRkiFgD-30">
          <mxGeometry x="36" y="12" width="199" height="60" as="geometry" />
        </mxCell>
        <mxCell id="odb9L4aliXWfhoRkiFgD-32" value="return status" style="rounded=0;whiteSpace=wrap;html=1;" vertex="1" parent="odb9L4aliXWfhoRkiFgD-30">
          <mxGeometry x="36" y="79" width="199" height="60" as="geometry" />
        </mxCell>
        <mxCell id="wFziyDtqeIjQP0cTcD0j-3" value="comments" style="swimlane;fontStyle=0;childLayout=stackLayout;horizontal=1;startSize=30;horizontalStack=0;resizeParent=1;resizeParentMax=0;resizeLast=0;collapsible=1;marginBottom=0;whiteSpace=wrap;html=1;fontSize=16;rounded=1;" parent="1" vertex="1">
          <mxGeometry x="90" y="190" width="280" height="210" as="geometry" />
        </mxCell>
        <mxCell id="wFziyDtqeIjQP0cTcD0j-4" value="id" style="text;strokeColor=none;fillColor=none;align=left;verticalAlign=middle;spacingLeft=4;spacingRight=4;overflow=hidden;points=[[0,0.5],[1,0.5]];portConstraint=eastwest;rotatable=0;whiteSpace=wrap;html=1;fontSize=16;" parent="wFziyDtqeIjQP0cTcD0j-3" vertex="1">
          <mxGeometry y="30" width="280" height="30" as="geometry" />
        </mxCell>
        <mxCell id="wFziyDtqeIjQP0cTcD0j-5" value="thread_id" style="text;strokeColor=none;fillColor=none;align=left;verticalAlign=middle;spacingLeft=4;spacingRight=4;overflow=hidden;points=[[0,0.5],[1,0.5]];portConstraint=eastwest;rotatable=0;whiteSpace=wrap;html=1;fontSize=16;" parent="wFziyDtqeIjQP0cTcD0j-3" vertex="1">
          <mxGeometry y="60" width="280" height="30" as="geometry" />
        </mxCell>
        <mxCell id="wFziyDtqeIjQP0cTcD0j-6" value="user_id" style="text;strokeColor=none;fillColor=none;align=left;verticalAlign=middle;spacingLeft=4;spacingRight=4;overflow=hidden;points=[[0,0.5],[1,0.5]];portConstraint=eastwest;rotatable=0;whiteSpace=wrap;html=1;fontSize=16;" parent="wFziyDtqeIjQP0cTcD0j-3" vertex="1">
          <mxGeometry y="90" width="280" height="30" as="geometry" />
        </mxCell>
        <mxCell id="wFziyDtqeIjQP0cTcD0j-7" value="text" style="text;strokeColor=none;fillColor=none;align=left;verticalAlign=middle;spacingLeft=4;spacingRight=4;overflow=hidden;points=[[0,0.5],[1,0.5]];portConstraint=eastwest;rotatable=0;whiteSpace=wrap;html=1;fontSize=16;" parent="wFziyDtqeIjQP0cTcD0j-3" vertex="1">
          <mxGeometry y="120" width="280" height="30" as="geometry" />
        </mxCell>
        <mxCell id="wFziyDtqeIjQP0cTcD0j-8" value="reply_to(-1)" style="text;strokeColor=none;fillColor=none;align=left;verticalAlign=middle;spacingLeft=4;spacingRight=4;overflow=hidden;points=[[0,0.5],[1,0.5]];portConstraint=eastwest;rotatable=0;whiteSpace=wrap;html=1;fontSize=16;" parent="wFziyDtqeIjQP0cTcD0j-3" vertex="1">
          <mxGeometry y="150" width="280" height="30" as="geometry" />
        </mxCell>
        <mxCell id="wFziyDtqeIjQP0cTcD0j-29" value="date" style="text;strokeColor=none;fillColor=none;align=left;verticalAlign=middle;spacingLeft=4;spacingRight=4;overflow=hidden;points=[[0,0.5],[1,0.5]];portConstraint=eastwest;rotatable=0;whiteSpace=wrap;html=1;fontSize=16;" parent="wFziyDtqeIjQP0cTcD0j-3" vertex="1">
          <mxGeometry y="180" width="280" height="30" as="geometry" />
        </mxCell>
        <mxCell id="wFziyDtqeIjQP0cTcD0j-27" value="" style="edgeStyle=entityRelationEdgeStyle;fontSize=12;html=1;endArrow=ERoneToMany;entryX=1;entryY=0.5;entryDx=0;entryDy=0;exitX=1;exitY=0.5;exitDx=0;exitDy=0;curved=1;fillColor=#1ba1e2;strokeColor=#006EAF;strokeWidth=2;" parent="1" source="wFziyDtqeIjQP0cTcD0j-15" target="wFziyDtqeIjQP0cTcD0j-5" edge="1">
          <mxGeometry width="100" height="100" relative="1" as="geometry">
            <mxPoint x="320" y="530" as="sourcePoint" />
            <mxPoint x="420" y="430" as="targetPoint" />
            <Array as="points">
              <mxPoint x="410" y="370" />
              <mxPoint x="410" y="360" />
              <mxPoint x="380" y="310" />
              <mxPoint x="390" y="270" />
            </Array>
          </mxGeometry>
        </mxCell>
        <mxCell id="wFziyDtqeIjQP0cTcD0j-28" value="" style="edgeStyle=entityRelationEdgeStyle;fontSize=12;html=1;endArrow=ERoneToMany;entryX=0;entryY=0.5;entryDx=0;entryDy=0;exitX=1;exitY=0.5;exitDx=0;exitDy=0;curved=1;fillColor=#1ba1e2;strokeColor=#006EAF;strokeWidth=2;" parent="1" source="wFziyDtqeIjQP0cTcD0j-4" target="wFziyDtqeIjQP0cTcD0j-11" edge="1">
          <mxGeometry width="100" height="100" relative="1" as="geometry">
            <mxPoint x="310" y="600" as="sourcePoint" />
            <mxPoint x="410" y="500" as="targetPoint" />
          </mxGeometry>
        </mxCell>
      </root>
    </mxGraphModel>
  </diagram>
</mxfile>
